<mxfile host="Electron" modified="2024-02-14T10:50:38.247Z" agent="Mozilla/5.0 (Windows NT 10.0; Win64; x64) AppleWebKit/537.36 (KHTML, like Gecko) draw.io/21.2.8 Chrome/112.0.5615.165 Electron/24.2.0 Safari/537.36" etag="ALYY2Vwpq1TJDvEIOxUD" version="21.2.8" type="device">
  <diagram name="Page-1" id="2XWkQP5S-hDbL94sL5Vg">
    <mxGraphModel dx="2058" dy="1180" grid="1" gridSize="10" guides="1" tooltips="1" connect="1" arrows="1" fold="1" page="1" pageScale="1" pageWidth="3300" pageHeight="4681" background="#999999" math="0" shadow="0">
      <root>
        <mxCell id="0" />
        <mxCell id="1" parent="0" />
        <mxCell id="APLwThIm-aDqV8bCMrbt-1" value="Key Navigation" style="rounded=0;whiteSpace=wrap;html=1;fontSize=25;fillColor=#dae8fc;strokeColor=#6c8ebf;" parent="1" vertex="1">
          <mxGeometry x="1380" y="180" width="680" height="60" as="geometry" />
        </mxCell>
        <mxCell id="wzk-zF6iokFzzfaTZNcJ-4" value="" style="group" vertex="1" connectable="0" parent="1">
          <mxGeometry x="1394.5" y="640" width="651" height="522" as="geometry" />
        </mxCell>
        <mxCell id="wzk-zF6iokFzzfaTZNcJ-1" value="" style="shape=image;verticalLabelPosition=bottom;labelBackgroundColor=default;verticalAlign=top;aspect=fixed;imageAspect=0;image=data:image/png,iVBORw0KGgoAAAANSUhEUgAAAosAAAIKCAYAAABLBgVqAAAAAXNSR0IArs4c6QAAAARnQU1BAACxjwv8YQUAAAAJcEhZcwAADsMAAA7DAcdvqGQAAB2cSURBVHhe7d19kCTnXdjxZ/feZMl6OVkCB4fodKeX0wtx/IaIMWDHyBXHZaBS+SOJzYtjgvNCUuSFFAUuIxxjKjFVDmCnCAW4iC07VAGhonJwMH4pYztlwKEwtklJOelkJCRLOnQ6nXXv2vTzdPduz9z8dndedmZn5/PR9UzPTM/0TM9sz1c9s9tLt93+TSup38pK6j2zOt0/1UXT7AQzeEQjznLnLftFN0fPqBff1llqjtkCFu52M5NnZOSZ7qzXT3k0S72PqT65dl53mt5YHBCAK/2VOFQkjvGuMsZVRzWDWc7AYizYxXguge2s9614SqY+05k8yrky8hIaa9Fu7splqk1E41os9kXg+pHYjFVHfVPNuREfzRgLYWctv60wgyW0IE+K1x6z0vvWtM3N5M7O1RKaurGWzshX3jnPSXkkawdFfbL3MXajsY7FvhC8uBPbM5rj6qhvksDmphpoxKuOMccZme4Dnb/lsyjm6JnxItp+etfxDGQhrWcmS2fkmc7Xc7n9HmZ9w+Vw7aBYCoJx6dbbbu+s+vtCsX9rYv2v0X96uxjjHo141e23DNYz/eUzjvlatrNgCbFIet/IuNjIS2j6V5wrfQ01pO23jHq2GvYeNKP1eJZHO7HYG4r9WxPXTnYDMus91WOdizYyxlVH110AQ5jJfZ2JER/pgiygxXkdAJux9nY7RSPPdCb3dupms3hGu/LWzXLtwjLWhGE3ILOey+pY7IRiTwyWi5rTvTF58elBNpwgNuJVx5jjGBblcS6KOVq6c/ZC8LrdGmur9x1uJg90YZbu1I28ZMd6Sqb/fG7Hx1ku7dt6mM9tjtqD1emWbrn1trX1d18odgNy95496bLLLk179+xNe/ftTbt27drSNX/3njDAXC2e6d9Zrx5g1uq322mbzVxHMkd3dRaadNsa1U1fuHAhnTlzJp09ey4988wz6fy5c9X59TzbeGwP12JxnVC8/PLL05VXXZmOHX86nTp9Np2ubvjc+QvNBLBFxi6++oUeG3YGG93eMEZ5cJud/0a3PanlEt3OqNdvrjfoZrs32V4ezWajh8c2tNnXzCKwLJiOPbt3p0v27UnP2bc3XbP/ynT8+FPp6RMnqnVovRLtCcYSi0Eo5u8tXnPNNdU5y+mRJ55MZ8+dry+AzZj6Om/YStjMHdyq8hg070nNK3pcm739ce/bqMu1ud46F23KpBYjUzbMk7yTWQ5M3949u9NfuebqtHvXUnrsscebc6vVaVmfLlUVODAU8/FKuuLyy6ux5fTgI48LRbax/GreikKY1+oYdL+HeSz90w67HDaafsjb8965IIZ9ne1UlgPTlxvvwUceS+cv1J8m17/kvNaEy/moyNG4Gor15sn80XPeogjbR16R9g+jaAtk0O3lYatt9TzHve1xrptF19/E7bVPTdYdL7q32w4byLfRDjAXNvnahgl75Im/TFddeWVpwG4TLtfrz+pEOa7GmpHLnntZ+Y6iLYrsPO2rfb2VsRX15LRvfEMs0/wUtU/TqhGek/7buOg22V6GfJ3seJYF05Wb74njT6VLL7u0nG6bsN6yWE7kemzOrY7zbz3nX2ZhjuSnb71hWINuY5hhbO0bR3cYR3vHJnFbTN6EnpOJvgaZDT+jMCunzpwtDdiWYm7Dte8stivW5nT+8zj5t55h+rbyjcIb0Pa23nMf1d+Qz2l0M7AtWWcxXafPnEv79u1r2rBeYS7dfPiW8oF0fbKMluMD1x1IXzry5+XcyBXPvSzt2b2rObV5+c/unDj5teYUEzO3b4LTWBnmhWOlO5/6X9iDnscxXvxeFtvc3K7YtoBlwXTcdui6dPTBo9XYUvmN6CoWD3c+fa5H8vGBA9elLx95qJyOvPs//kw6dMMNzanB2p1SP/zoE22gpq+dOJb+9b/7sbS8PHxoso65XI9s9Tt1d6Gogvk06IW9medyiB8IL405MJcruC1gObD1bj3019LRow92/3ROOb96/dUjq+W4CVddeUW67fCN6w633nxDGe78jm9Jr3llPVx7zfOGmg+blJ/U9YZtZxp3alsvALYLq6M54GeY8f37t701feXeL6WHj/zfgUO+LE+z3Xz2Yx9JL7/jm5tTF8uXfeb3fqc5NSntp83tL7iMaNeu5fTgVx5LP3f3Z9LPf+jT6Rd+/ffTe37jU+m9//2T6YH7H0qnvvZ0evyrj5bhmZNPp/f/ry+UYSNf/Pxn0x0ve0lzqj59z298qDk1uk9/7HfK0O/hI19uxoaT72O+7pu//43NOePLt/eOn/yJ5tT48uPNt1mG++th8rpBNswAoxj02slrtP6Bncd6wzIYz/e/8R+kO1/33emWF33zwOHb73xtmWa7+bc//rb0nv/0roHBmM/Ll/3oT/xkc87kjRWL5S1/aVd64KmT6ejTT6cHnzmR/vzMU+mhc8fTuXPPVkVaDc1/rV17h9tNYI6dP/yjP06v/3uTefKuP3DdxGLsc3/4+fSCQ7emX/m1DzTnDC9HcPf+5Nt760/9dHNqMt729neW283D+/7r3SUY3/wDkwpcKy62Wvc1Nuj1ts3CUK9usfLOU48uLMtgVLt27UqPfPWxdOLEiYHD0Qe/UqbZbj77uT9IP/wjP3pRMLahmC/L02yVsWLxwrP12vDa5+1LS3vPp6fOn0iPnz6Wvnqq3lXMUt/K8pL9p9Ol1zzTnNrY+/7Le9OTTx5Pb3rLP2/OGV+OpTd93xuaU4snh+iiLwPm0Zy8OfYHomDcQmLJMlgs/cE4rVDMxorFdj34Z199KD1w/JF0/PyT6VR6Op1dOlnOX2lex0vNC/qyq06mS59bX7aRf/KD/yjdeMPBi7Yo5oBsP1ZtP1LOx/n8Vv5YeNDHzdkDRx9Mv/t7nwg/1u5+bJs//s7ytP23316Wp2t171s73srTt5e19y3f7otf9MISbu203Y/g83za6+ShuwUyT5dPt5d1799G7vnwR8pfaG/d85sfWv2IOo9n+T7kebzvl6rHUZ2/+nh7pltbUT18/5dWh3t+84PNuTBH8gqtO6ynf9p2YMrEEoulG4zTCsVs7I+hs1NVHO55zrm055Jzafe+s2lPNRTVyrMNxezwtd+YbrjqYHNqfa/5zleVLWBdOY6ued7Vqx+p3vf/7i/n5elyWLa+5/Wvu+i6XXlL5fXXXzfwu4avePVrV2//gQceLLf/jv/ws+llL31RM0V9+7/9Pz7cnKrl28r3ub1uv9tf8vKey/L0OYT/zx//Sbmv/dfJsfb2t/14+rt//3tXr5ejsnufX/ntryjn52nyvDfrc3/0+bR//1VlPMfgE8f+Mr3gYDWPasje/APfWx0urU7zgoO3peNPPVUiMY/nIUduG7Vf/PxnqsfwwdXL8vXe90vvKZfBjjNsFIpIdqhBvyAyaGD+9e3ur1mr5V9/GWIFVyKxGvbsy0MnFqtO7N7MDfsPlWEz8vfsciy1QZK98JtuL5HSbk3LgZTPy98ZvOqqK1enzSG40fcI3/3z/zn9q3/5z5pTa7pb8/K8svzdxOPHn1oNtXx+//cKX/Hyv1m2WLb6PzrvbgXM35vcyOv/zt8uIZnn3cq3n+fT+jc/Vv/GVp7myePHe5bVevJ0efr8/OTIzsux3WKYH9srXv4tZbryFYAf+uEynsO8+/jyFtrbb7tldZ5vvWtteeRw7MY7bK3u1qU83j+sZ5hpK0OsF3vk6416XTawyeeOiXvBocObGpic7kfP3Y+kJ251nVUdVE041pbFVh2KdSTuzcd761is/zxOu4ZcSWfPnUunTp1uTq/vi1/+s7LF7Vd+8Reac2rtVrh2aD+mzlv68kfXOcryL8RsJMdku+WwhFMlx2AOyPa2c6y1PvmpT5ctinn6bjR1PfwXf9GM9crXabcC5iGH1qiieQwjL6f82FvlF2CaLYt5y2AbiOPIoQnTM0owDJp+ndtoV2XjmMRtEBCM7Gz931Hs/w7jVhovFqufzTNnTqU7rjmUXrr/xvTiK25Kf+OyW9Jff85t5fx6kvoHOHfjs88+my5Uw2blrXc5atrv+P3Jn34xfc93va6M98vT5o+Kc5T94i//anPu+vLHy/2/6JG3ILbaLYtZvv18Orr9HHHd+9b/HcI2nvKWuO6WxfIR8Dd8Q32ibetqyN8rzPO746UvWT0vbwG8539+JE85WOf6q0OrGc/3K99OG9l5i+E4v+zSbvl8x11r36d80/f9w+q5+lJzCmZtyChsRT9LxbBhkqdf5zr987pofmzOsM8Li+bChQvp6uYrVoM8/+u/vkyz3US/zDKtYBwrFnP33XLzN6a3vOo701u+4zXpH3/ba9MPftt3pTd/63enwzf/1XTppZelr/u6a9PVz7s67dm7p8Ti8vJwP8xt1ORfsGjjsf04Nw/d7/C1W8u6H92uJ0+XtxLuv6p+4bQfZ7e33d2ymLWnB91+/33rakMzn5+3lHa3LH76s/+7/hi47zp5HnmL32/9+vtXPyLOpzf72Lryx/nlNqp55I+H89bN1pt+qP64vJ1H/gWVO1724nLeZt3+km8tgdj+gksO0O7H0jB77Xpng2grNrOO2mzNDZhf/1WFIWPZzOuV1q994EPpUx/Nv8g6+PuVf/D7Hy/TbCd5T3jv+umfuigUW20w/uw7396cM3lLN918uFpVtX+luzmuDg4cOJC+fP/6u/v7kX/xT9OLXri29a3f8vJyGXKld/fY8oUv/Gl617t/Li3v2t2cMxn5t4t/+54Pj/V3Dyclb0HMYZh/sWXT5upNwwqKnaz9YRz0Ol/vB3Wjn4shfsj9iI1prlaoE7KIj3kx5GCc5p7vbj2Yd/d3tKyH8ifEY8VivuMrz1Yh2JzerLwOXFretbrf6EkYKc62UP7oPH/03P+nf9Y1vdfBlHnXYyeJflCHfZ3n2+m/Tue2/dhMwI5dqa5jER8zk9Yfi+P96Zwq9vLWwV1DDvk6kwzFvEXxt/7b+8tvOM9KjtX2I+j2I+WhQjHLi8QbBGxzg35IR/nB3eA6+T2/OzACK1SYhLG2LLJF5u6NwQoZJidYAfgxG9HcrVDHtGiPl60w0S2L4B0MJs3P1GRZnjAusQiw7eTAETmTY1nCOMQiI/JmBlNVviLUGQCmpI7FsuJZ+76i9dA8auNto2GzBl23OwBbz8/a5CzKsvSaYTKaNCzHtizuCMOsHDYzrZUNbB9+HhlWfs143TA5YnHujbJCWO86VjCw/Xjzn4xFW45eM0yGWJyG8vH+EMNUDFqJWLHA3JjJemOnsK6DYdR/Z7F8T7H3O4vXHziQPvrR3y0TAQCwGO688zXpgaNH6/+tyjtgKecCAMAAYhEAgJBYBAAgJBYBAAiJRQAAQmIRAICQWAQAIFTFYv13FduD+m+7lj+4WMYAAFgcpQabv7udT9myCABASCwCABASiwAAhMQiAAAhsQgAQEgsAgAQEosAAITEIgAAIbEIAEBILAIAEFqu9+XS3eVf2cNLOwoAwIJpOzA3oS2LAACExCIAACGxCABASCwCABASiwAAhMQiAAAhsQgAQEgsAgAQEosAAITEIgAAoeW8O5e8K5d8UHbtUp8o/wAAWDB1EDZNaMsiAADrEIsAAITEIgAAIbEIAEBILAIAEBKLAACExCIAACGxCABASCwCABASiwAAhMQiAAChKhZ7dwLd7g4QAIAFlXcN3YzasggAQEgsAgAQEosAAITEIgAAIbEIAEBILAIAEBKLAACExCIAACGxCABASCwCABBaXmn271fv0iUftjt3AQBgEa12YRWKtiwCABASiwAAhMQiAAAhsQgAQEgsAgAQEosAAITEIgAAIbEIAEBILAIAEBKLAACExCIAAKE6FpvdQZf9ROfdADb/AQCwWOoGLEFYxmxZBAAgJBYBAAiJRQAAQmIRAICQWAQAICQWAQAIiUUAAEJiEQCAkFgEACAkFgEACJVYLDv2K/v6a8fLKAAACyhnYZuDtiwCABASiwAAhMQiAAAhsQgAQEgsAgAQEosAAITEIgAAIbEIAEBILAIAEBKLAACExCIAAKEqFjv7hC6HK/V4u0NAAAAWx2oDViMrK7YsAgAQE4sAAITEIgAAIbEIAEBILAIAEBKLAACExCIAACGxCABASCwCABASiwAAhJZ79u1nF38AAHTYsggAQEgsAgAQEosAAITEIgAAIbEIAEBILAIAEBKLAACExCIAACGxCABASCwCABASiwAAhJbXdg29srab6JVykE8BALBQqgbMLVj/s2URAICYWAQAICQWAQAIiUUAAEJiEQCAkFgEACAkFgEACIlFAABCYhEAgJBYBAAgVGKx7NivOShHAAAstLYJbVkEACAkFgEACIlFAABCYhEAgJBYBAAgJBYBAAiJRQAAQmIRAICQWAQAICQWAQAIVbFY78yld5d/dvsHALCIcgOu1eGKLYsAAMTEIgAAIbEIAEBILAIAEBKLAACExCIAAKGlQzfcsLKyklJzkMp/1fHBgwfTxz/2sWYydqKlpaVmDAA2rzQDO9bfevWr0/33P1B1Qt0KYnGB5ReAH3e4WPu/UXfddVczBrTyz4VY3Nn6Y9HH0AAAhMQiAAAhsQgAQGi5fGmt+e5BOWy/huDrCAAAi6cNwvyvGmxZBAAgJBYBAAiJRQAAQmIRAICQWAQAICQWAQAIiUUAAEJiEQCAkFgEACAkFgEACC2v7dWvHiuHa2cCALCA2hy0ZREAgJBYBAAgJBYBAAiJRQAAQmIRAICQWAQAICQWAQAIiUUAAEJiEQCAkFgEACAkFgEACK3FYmd/0J29RAMAsGBWOhloyyIAACGxCABASCwCABASiwAAhMQiAAAhsQgAQEgsAgAQEosAAITEIgAAIbEIAECoisWVtR37lX272M0fAMDialuwOq7a0JZFAABCYhEAgJBYBAAgJBYBAAiJRQAAQmIRAICQWAQAICQWAQAIiUUAAEJiEQCAkFgEACDUxGJ3/9CrBwAALJi6AvN+ocuILYsAAMTEIgAAIbEIAEBILAIAEBKLAACExCIAACGxCABASCwCABASiwAAhMQiAACh5bU9+/Xu8m91HACAxdKEYD6yZREAgJBYBAAgJBYBAAiJRQAAQmIRAICQWAQAICQWAQAIiUUAAEJiEQCAkFgEACAkFgEACC2XXf/lg84+AAEAWGx1E67YsggAQEwsAgAQEosAAITEIgAAIbEIAEBILAIAEBKLAACExCIAACGxCABASCwCABAqsbi2i796v392+QcAsLi6LWjLIgAAIbEIAEBILAIAEBKLAACExCIAACGxCABASCwCABASiwAAhMQiAAAhsQgAQKiKxUE796vOs88/AIAFlUOwjkFbFgEACIlFAABCYhEAgJBYBAAgJBYBAAiJRQAAQmIRAICQWAQAICQWAQAIiUUAAEJiEQCA0Goslr3/2R80AMBia3uw2T20LYsAAITEIgAAIbEIAEBILAIAEBKLAACExCIAACGxCABASCwCABASiwAAhMQiAACh5e4u/spos2sXAAAWVNOC+ciWRQAAQmIRAICQWAQAICQWAQAIiUUAAEJiEQCAkFgEACAkFgEACIlFAABCYhEAgJBYBAAg1MTi2g6h7RYaAIC2CW1ZBAAgJBYBAAiJRQAAQmIRAICQWAQAICQWAQAIiUUAAEJiEQCAkFgEACAkFgEACC2XXbms7uPPzv4AABZbtwdXbFkEACAmFgEACIlFAABCYhEAgJBYBAAgJBYBAAiJRQAAQmIRAICQWAQAICQWAQAIiUUAAELrxKL9RAMALK66BW1ZBAAgJBYBAAiJRQAAQmIRAICQWAQAICQWAQAIiUUAAEJiEQCAkFgEACAkFgEACJVYLDtzyQfNyOooAAALpe7AtRK0ZREAgJBYBAAgJBYBAAiJRQAAQmIRAICQWAQAICQWAQAIiUUAAEJiEQCAkFgEACAkFgEACK3GYu++oO0ZGgBgodU7ibZlEQCAmFgEACAkFgEACIlFAABCYhEAgJBYBAAgJBYBAAiJRQAAQmIRAICQWAQAILQai0vNcb2nv9VTAAAsoiYHbVkEACAkFgEACIlFAABCYhEAgJBYBAAgJBYBAAiJRQAAQmIRAICQWAQAICQWAQAILR24/vqVlZWUmoNynP87dOhQ+uQnPtFMxk60tGS3jgAMrzQDO9YrX/WqdOTIkdIJ5T+xCABAqz8WfQwNAEBILAIAEBKLAACExCIAACGxCABASCwCABASiwAAhMQiAAAhsQgAQEgsAgAQWk527wgAQFfuw6YRbVkEACAkFgEACIlFAABCYhEAgJBYBAAgJBYBAAiJRQAAQmIRAICQWAQAICQWAQAINbFY789ldc9/dgEIALDwchLasggAQEgsAgAQEosAAITEIgAAIbEIAEBILAIAEBKLAACExCIAACGxCABASCwCABASiwAAhDqxaIfQAAD0smURAICQWAQAICQWAQAIiUUAAEJiEQCAkFgEACAkFgEACIlFAABCYhEAgJBYBAAgJBYBAAiJRQAAQmIRAICQWAQAICQWAQAIiUUAAEJiEQCAkFgEACAkFgEACIlFAABCYhEAgJBYBAAgJBYBAOi11BxXxCIAACGxCABASCwCABASiwAAhMQiAAAhsQgAQEgsAgAQEosAAITEIgAAIbEIAECoLxZXmmMAABZWJwltWQQAICQWAQAIiUUAAEJiEQCAkFgEACAkFgEACIlFAABCYhEAgJBYBAAgJBYBAAj1xeJSzxEAAIvNlkUAAEJiEQCAkFgEACAkFgEACIlFAABCYhEAgJBYBAAgJBYBAAiJRQAAQmIRAICQWAQAICQWAQDotdQcV8QiAAAhsQgAQEgsAgAQEosAAITEIgAAIbEIAEBILAIAEBKLAACExCIAACGxCABASCwCADBQ3uufWAQAICQWAQAIiUUAAEJiEQCAkFgEACAkFgEACIlFAABCYhEAgJBYBAAgJBYBAAiJRQAAQstlp3/1AQAA9LBlEQCAkFgEACAkFgEACIlFAABCYhEAgJBYBAAgJBYBAAiJRQAAQmIRAICQWAQAINSJxSV7/gMAoIctiwAAhMQiAAAhsQgAQEgsAgAQEosAAISqWBz068/Nb0YDALCYcgxWQxWLK6unFSIAwGKrG3EtCnu3LNbdWM45f+FCevzxx+szAADY8XL7nT9/oTlVW/vOYp2R7UE6c/pMuve++8o4AAA7X26/02dON6fqJiyxWI/W2vEzZ8+k++69tzkFAMBOl9vv7JmzZbxuwqVmy+JqLTYj1dHJp0+mu+/+YHrooYfq8wAA2LFy8+X2O3nyZKcNU1peKifywVooZufOnUuPPvpoes9731ufAQDAjpWbL7dfbsCiasKchbv2799/V31OdUYJxaYWK/kz62NPHEtHjhxJhw8fTldccUVzCQAAO0HeovjOd/5M+vgnPp6OHTtWzlvKUVgN5ej6gwdXVvJvQVcH5b/+8cqVV16Rnv/856c3vuEN6cYbb0w33XRTuvbaa+sLAQCYK/m3nu+999503333pQ/cfXfZonjiqRP1hTkQy0GOxWq4/uChUoVtHDblWIdi5/w9e3any597edq7b2+6ZN8ladeu5eqSMuk61r1wXSNfc/RZjmH6M52vhzmTezt1C/LSqyzG8zkba5/s7GgzeJgLsmQrIz7ShXlOpj/XvGVu+taZaXVRvjT/eZwzZ06nM2fPlu8onjt3vt6KWCZotii24yUWq5V/bxyWs8px/q/+1zm/Plg9jpTLRzXiVWcxz3GMfH9Hvq+jP8gZLJ75ek7mzYI8TDaQ3zUIlTfLaRtjlqNfdX4e5yyek/KR7LSNMct1l1F10WoEro7Xx/VHz+15a5cvHaxiMb855g5ci8V8a/m4Gin/escvOg6U60zbGLNc77GsayYPcwHu6zhmMMtxzGQZwYyUN6JFMOLDHG/pzGSmI5nJ62DkxTPGfd1m8yy3W/51j6vD7nn5dHt+vs7BQ1Us5vep6qC8YeV/F433XZ7/q88s/yLNNUcz4lUXZZ6jGuu+jmoGsxxnpnN2d9kis/hZqVfLhGaweMab5YjXnqOXwUxes2PMcuT7u5PmWS6qpqiOy3Srx93z6vFyamkp/X9wYtQ5MjoawAAAAABJRU5ErkJggg==;" vertex="1" parent="wzk-zF6iokFzzfaTZNcJ-4">
          <mxGeometry width="651" height="522" as="geometry" />
        </mxCell>
        <mxCell id="wzk-zF6iokFzzfaTZNcJ-2" value="focus" style="rounded=0;whiteSpace=wrap;html=1;fontSize=19;" vertex="1" parent="wzk-zF6iokFzzfaTZNcJ-4">
          <mxGeometry x="195.5" y="260" width="80" height="40" as="geometry" />
        </mxCell>
        <mxCell id="wzk-zF6iokFzzfaTZNcJ-3" value="no focus" style="rounded=0;whiteSpace=wrap;html=1;fontSize=19;" vertex="1" parent="wzk-zF6iokFzzfaTZNcJ-4">
          <mxGeometry x="385.5" y="260" width="80" height="40" as="geometry" />
        </mxCell>
        <mxCell id="wzk-zF6iokFzzfaTZNcJ-5" value="Moving focus through visual elements." style="rounded=0;whiteSpace=wrap;html=1;fontSize=21;" vertex="1" parent="1">
          <mxGeometry x="1380" y="240" width="680" height="330" as="geometry" />
        </mxCell>
      </root>
    </mxGraphModel>
  </diagram>
</mxfile>
